<?xml version="1.0" standalone="no"?>
<!DOCTYPE svg PUBLIC "-//W3C//DTD SVG 20010904//EN"
 "http://www.w3.org/TR/2001/REC-SVG-20010904/DTD/svg10.dtd">
<svg version="1.0" xmlns="http://www.w3.org/2000/svg"
 width="700.000000pt" height="700.000000pt" viewBox="0 0 700.000000 700.000000"
 preserveAspectRatio="xMidYMid meet">
<metadata>
Created by potrace 1.14, written by Peter Selinger 2001-2017
</metadata>
<g transform="translate(0.000000,700.000000) scale(0.100000,-0.100000)"
fill="#000000" stroke="none">
<path d="M0 3500 l0 -3500 3500 0 3500 0 0 3500 0 3500 -3500 0 -3500 0 0
-3500z m3610 1937 l0 -383 -562 -319 c-310 -176 -574 -326 -588 -334 -25 -13
-36 -7 -334 179 -173 108 -304 196 -299 201 12 12 1766 1038 1776 1039 4 0 7
-172 7 -383z m1060 -589 l0 -363 -585 -353 -585 -352 -295 197 c-163 108 -292
200 -288 204 9 8 1745 1029 1750 1029 2 0 3 -163 3 -362z m-2307 -957 c686
-391 1135 -641 1146 -638 14 3 2156 1220 2289 1299 l32 20 0 -1509 0 -1508
-281 -173 c-155 -95 -283 -172 -284 -170 -2 2 -8 379 -14 838 -6 459 -13 997
-17 1196 l-6 361 -857 -494 c-471 -272 -863 -498 -871 -503 -11 -6 -263 136
-880 494 l-865 503 -3 -1214 c-1 -667 -5 -1213 -10 -1213 -4 0 -133 74 -287
164 l-280 163 -3 1533 -2 1532 32 -19 c18 -11 541 -308 1161 -662z"/>
</g>
</svg>
